<svg xmlns="http://www.w3.org/2000/svg" width="500" height="500" viewBox="0 0 500 500">
<g>
<path d="M 251.15 307.58 C249.70,310.73 246.03,310.38 245.97,307.08 C245.96,306.21 244.10,304.38 241.83,303.00 C236.87,299.98 234.05,294.47 234.02,287.70 C234.00,282.54 235.98,277.60 238.46,276.65 C240.15,276.01 240.29,276.97 240.01,287.36 C239.88,292.18 240.24,293.63 242.10,295.61 C243.34,296.92 244.72,298.00 245.17,298.00 C245.63,298.00 246.00,294.40 246.00,290.00 C246.00,282.83 246.20,282.00 247.88,282.00 C250.05,282.00 250.97,284.57 250.99,290.67 C250.99,292.96 251.27,295.55 251.61,296.42 C253.38,301.04 258.99,294.25 259.00,287.47 C259.00,279.77 251.05,267.97 241.91,262.14 C236.75,258.84 229.48,251.77 226.85,247.50 C224.46,243.61 224.49,236.92 226.91,232.21 C229.44,227.28 234.28,222.80 237.44,222.46 C238.85,222.30 240.00,222.27 240.00,222.37 C240.00,222.48 237.98,224.71 235.51,227.32 C233.04,229.94 231.09,232.40 231.18,232.79 C231.26,233.18 230.98,234.74 230.55,236.26 C229.07,241.52 230.74,245.56 237.03,251.95 C245.79,260.85 246.00,260.67 246.00,244.06 C246.00,236.39 246.41,229.87 246.91,229.56 C247.41,229.25 248.54,229.27 249.41,229.60 C250.75,230.12 251.00,232.29 251.00,243.64 C251.00,254.58 251.27,257.17 252.48,257.63 C253.39,257.98 256.46,256.01 260.43,252.52 C267.31,246.49 269.62,242.10 268.54,237.17 C267.59,232.85 259.02,224.60 248.13,217.54 C234.95,208.99 225.83,201.09 222.44,195.30 C220.06,191.24 219.64,189.42 219.62,183.02 C219.59,175.67 221.28,170.18 224.09,168.44 C225.58,167.52 233.23,175.98 234.77,180.25 C236.55,185.15 236.29,188.76 233.82,193.86 L 231.65 198.36 L 236.07 202.29 C240.86,206.54 246.93,210.00 249.58,210.00 C251.32,210.00 262.66,202.32 264.90,199.62 C265.96,198.34 265.89,197.27 264.47,193.56 C261.81,186.59 262.79,179.39 267.34,172.54 C269.36,169.50 271.65,167.00 272.42,167.00 C274.60,167.00 279.84,175.73 280.57,180.59 C281.11,184.22 280.75,185.87 278.47,190.24 C274.70,197.45 269.94,203.05 263.19,208.17 C262.76,208.50 262.36,208.81 261.97,209.10 C257.61,212.41 255.88,213.72 255.96,214.91 C256.01,215.80 257.07,216.63 258.77,218.17 C260.82,220.03 263.40,222.21 264.50,223.02 C267.58,225.31 273.13,232.84 273.93,235.82 C274.32,237.30 274.29,240.52 273.86,243.00 C273.15,247.01 272.01,248.50 263.45,256.58 L 253.84 265.65 L 256.25 268.58 C262.92,276.65 264.00,279.15 264.00,286.48 C263.99,294.73 262.29,298.24 256.15,302.62 C253.93,304.20 251.68,306.44 251.15,307.58 ZM 302.92 189.20 C299.10,193.22 296.97,193.88 295.11,191.63 C293.60,189.81 294.57,187.52 297.40,186.23 C300.05,185.02 304.25,176.78 303.81,173.67 C303.57,172.07 302.18,171.17 298.05,169.92 C289.11,167.24 290.09,163.59 299.30,165.26 C310.83,167.34 322.15,166.34 328.80,162.65 C330.91,161.48 330.45,161.27 323.31,160.16 C304.73,157.27 287.00,150.60 287.00,146.49 C287.00,144.48 289.87,144.62 296.75,146.96 C307.22,150.53 318.36,152.89 329.89,153.99 C341.11,155.07 341.32,155.05 343.74,152.79 C345.09,151.53 346.83,149.26 347.62,147.75 C348.92,145.25 348.89,144.99 347.28,144.93 C338.59,144.61 331.11,143.88 328.57,143.10 C326.88,142.58 323.35,141.87 320.73,141.52 C314.56,140.68 299.52,135.71 290.11,131.39 C281.76,127.56 279.49,127.24 278.65,129.75 C278.32,130.71 277.63,132.18 277.12,133.00 C276.60,133.82 274.94,137.09 273.42,140.26 C269.72,147.99 262.57,153.36 260.49,149.98 C260.14,149.42 261.92,146.66 264.44,143.86 C266.96,141.05 269.28,137.58 269.61,136.13 C269.93,134.68 270.82,132.08 271.59,130.35 C272.37,128.62 273.00,126.78 273.00,126.27 C273.00,125.76 274.12,124.30 275.49,123.01 C277.79,120.85 278.28,120.77 282.03,121.89 C284.26,122.56 289.43,124.65 293.52,126.54 C305.87,132.25 324.84,137.01 343.00,138.97 C359.30,140.73 360.27,141.56 354.81,149.10 C353.06,151.52 351.70,153.61 351.80,153.74 C351.90,153.87 350.07,155.69 347.74,157.79 C335.05,169.20 327.53,172.61 317.41,171.53 C312.47,171.00 310.92,171.15 310.64,172.17 C308.26,181.04 306.06,185.90 302.92,189.20 ZM 204.52 189.04 C204.92,189.68 204.39,191.05 203.35,192.10 C201.49,193.96 201.38,193.94 197.63,191.40 C193.96,188.90 189.03,180.64 189.01,176.94 C188.99,173.50 186.57,172.01 180.00,171.41 C176.43,171.08 171.93,170.15 170.00,169.33 C163.70,166.67 156.53,162.73 154.86,161.00 C153.95,160.07 152.13,158.46 150.81,157.41 C147.47,154.75 140.00,145.11 140.00,143.45 C140.00,141.92 143.60,139.63 144.82,140.39 C145.97,141.10 173.13,136.41 184.36,133.56 C189.73,132.20 197.81,129.44 202.31,127.43 C217.70,120.57 218.67,120.30 221.74,122.03 C223.24,122.87 224.48,124.44 224.50,125.53 C224.62,130.87 228.25,138.90 232.59,143.43 C237.09,148.13 237.93,151.20 234.88,151.78 C232.25,152.29 224.50,143.91 222.55,138.44 C219.73,130.54 219.07,128.48 217.91,128.15 C217.51,128.03 217.04,128.13 216.40,128.27 C216.28,128.29 216.15,128.32 216.01,128.35 C214.54,128.64 210.45,130.19 206.92,131.79 C195.11,137.15 193.30,137.83 186.88,139.38 C173.98,142.50 168.31,143.35 159.82,143.43 C155.05,143.48 150.80,143.86 150.39,144.28 C149.25,145.41 152.61,151.70 155.29,153.45 C157.28,154.76 159.02,154.85 166.08,154.05 C183.60,152.05 189.30,150.96 197.78,147.98 C210.02,143.67 211.00,143.47 211.00,145.31 C211.00,147.30 206.82,150.57 202.44,152.02 C200.55,152.64 199.00,153.49 199.00,153.89 C199.00,154.29 196.64,155.17 193.75,155.85 C190.86,156.52 186.02,157.72 183.00,158.50 C179.98,159.28 175.25,160.32 172.50,160.81 L 167.50 161.69 L 172.44 163.98 C176.99,166.08 178.27,166.21 188.44,165.62 C194.52,165.26 201.19,164.71 203.25,164.38 C206.04,163.93 206.99,164.13 206.97,165.14 C206.91,167.46 204.48,169.87 201.67,170.38 C195.26,171.55 194.97,171.83 195.36,176.53 C195.79,181.68 198.15,185.73 201.46,186.98 C202.75,187.47 204.13,188.40 204.52,189.04 ZM 250.76 169.50 C250.56,193.08 250.21,200.43 249.25,200.75 C248.56,200.98 247.79,200.57 247.54,199.83 C247.29,199.10 246.95,185.45 246.79,169.50 C246.53,143.13 246.33,140.25 244.63,137.75 C243.61,136.24 243.16,134.95 243.63,134.88 C246.64,134.48 247.79,134.56 250.28,135.35 C252.32,135.99 252.79,136.54 252.05,137.44 C251.42,138.20 250.93,150.47 250.76,169.50 ZM 225.16 189.45 C226.46,192.31 227.07,192.53 228.80,190.80 C231.32,188.28 229.06,176.00 226.08,176.00 C223.84,176.00 223.21,185.18 225.16,189.45 ZM 242.00 128.14 C242.00,132.24 240.96,133.56 239.16,131.76 C237.70,130.30 237.67,126.49 239.08,123.85 C240.30,121.57 247.34,118.06 250.75,118.02 C252.34,118.01 253.00,118.59 253.00,120.00 C253.00,121.69 252.33,122.00 248.70,122.00 C243.42,122.00 242.00,123.30 242.00,128.14 ZM 269.67 191.33 C270.83,192.50 271.53,192.07 273.28,189.10 C275.26,185.76 275.46,182.33 273.92,178.32 L 272.84 175.50 L 270.92 177.86 C269.57,179.52 269.00,181.78 269.00,185.44 C269.00,188.32 269.30,190.97 269.67,191.33 ZM 258.80 127.63 C259.15,131.19 254.73,137.62 253.78,134.93 C253.50,134.14 253.70,132.66 254.23,131.64 C254.76,130.61 255.01,128.54 254.79,127.03 C254.46,124.78 254.76,124.31 256.44,124.40 C257.99,124.47 258.58,125.28 258.80,127.63 Z" fill="rgb(31,60,186)"/>
<path d="M 250.76 169.50 C250.93,150.47 251.42,138.20 252.05,137.44 C252.79,136.54 252.32,135.99 250.28,135.35 C247.79,134.56 246.64,134.48 243.63,134.88 C243.16,134.95 243.61,136.24 244.63,137.75 C244.96,138.23 245.23,138.73 245.46,139.41 L 242.00 136.11 C238.48,132.77 238.00,131.76 238.00,127.79 C238.00,122.30 240.56,118.63 245.52,116.99 C253.26,114.44 260.00,119.44 260.00,127.73 C260.00,131.77 259.53,132.76 256.01,136.10 L 252.03 139.89 L 251.76 171.20 C251.51,201.85 251.46,202.51 249.46,202.79 C248.34,202.95 247.10,202.77 246.71,202.38 C246.32,201.99 246.00,187.77 246.00,170.79 L 246.00 142.00 C246.49,145.79 246.63,153.11 246.79,169.50 C246.95,185.45 247.29,199.10 247.54,199.83 C247.79,200.57 248.56,200.98 249.25,200.75 C250.21,200.43 250.56,193.08 250.76,169.50 ZM 258.80 127.63 C258.58,125.28 257.99,124.47 256.44,124.40 C254.81,124.31 254.48,124.75 254.76,126.83 C254.00,124.30 251.74,122.00 249.00,122.00 C244.10,122.00 241.24,128.10 244.57,131.43 C246.43,133.28 252.09,133.51 253.80,131.80 C254.12,131.48 254.37,131.13 254.56,130.76 C254.47,131.09 254.36,131.39 254.23,131.64 C253.70,132.66 253.50,134.14 253.78,134.93 C254.73,137.62 259.15,131.19 258.80,127.63 ZM 258.01 292.59 C258.59,290.72 258.89,288.57 258.74,286.50 C258.23,279.61 253.26,272.98 241.51,263.54 C221.35,247.32 218.89,239.69 229.57,226.58 C235.39,219.43 237.35,218.34 240.59,220.47 L 243.05 222.08 L 237.09 227.79 C233.49,231.24 231.25,234.16 230.37,236.98 C230.42,236.74 230.49,236.50 230.55,236.26 C230.98,234.74 231.26,233.18 231.18,232.79 C231.09,232.40 233.04,229.94 235.51,227.32 C237.98,224.71 240.00,222.48 240.00,222.37 C240.00,222.27 238.85,222.30 237.44,222.46 C234.28,222.80 229.44,227.28 226.91,232.21 C224.49,236.92 224.46,243.61 226.85,247.50 C229.48,251.77 236.75,258.84 241.91,262.14 C251.05,267.97 259.00,279.77 259.00,287.47 C258.99,289.25 258.61,291.02 258.01,292.59 ZM 297.62 193.09 C292.40,195.45 289.56,195.58 290.40,193.41 C290.73,192.53 291.26,190.84 291.57,189.66 C291.87,188.47 293.56,186.80 295.31,185.95 C297.27,184.99 299.37,182.69 300.75,179.99 C304.03,173.56 303.74,172.26 298.75,171.00 C290.28,168.86 287.50,167.49 287.50,165.46 C287.50,163.80 288.18,163.51 292.00,163.55 C294.48,163.58 300.02,164.14 304.32,164.80 C313.28,166.17 321.76,165.59 327.39,163.21 L 329.05 162.51 C328.97,162.56 328.89,162.60 328.80,162.65 C322.15,166.34 310.83,167.34 299.30,165.26 C290.09,163.59 289.11,167.24 298.05,169.92 C302.18,171.17 303.57,172.07 303.81,173.67 C304.25,176.78 300.05,185.02 297.40,186.23 C294.57,187.52 293.60,189.81 295.11,191.63 C296.04,192.76 297.05,193.15 298.30,192.76 C298.07,192.87 297.85,192.98 297.62,193.09 ZM 189.01 177.04 C187.93,173.02 187.83,173.00 183.21,172.99 C167.72,172.95 150.75,162.65 140.15,146.87 C137.86,143.46 136.11,140.56 136.25,140.43 C136.39,140.29 142.80,139.69 150.50,139.10 C156.01,138.67 161.23,138.09 166.22,137.34 C155.75,139.27 145.51,140.82 144.82,140.39 C143.60,139.63 140.00,141.92 140.00,143.45 C140.00,145.11 147.47,154.75 150.81,157.41 C152.13,158.46 153.95,160.07 154.86,161.00 C156.53,162.73 163.70,166.67 170.00,169.33 C171.93,170.15 176.43,171.08 180.00,171.41 C186.57,172.01 188.99,173.50 189.01,176.94 C189.01,176.97 189.01,177.01 189.01,177.04 ZM 272.72 127.45 C272.46,128.25 272.05,129.32 271.59,130.35 C270.82,132.08 269.93,134.68 269.61,136.13 C269.28,137.58 266.96,141.05 264.44,143.86 C261.92,146.66 260.14,149.42 260.49,149.98 C262.57,153.36 269.72,147.99 273.42,140.26 C274.94,137.09 276.60,133.82 277.12,133.00 C277.63,132.18 278.32,130.71 278.65,129.75 C279.06,128.51 279.83,127.96 281.51,128.18 C279.44,128.06 278.86,129.52 278.04,132.75 C276.17,140.20 272.07,146.78 267.06,150.39 C259.78,155.64 258.99,155.67 259.04,150.72 C259.07,147.08 259.52,146.22 262.28,144.48 C264.40,143.15 266.77,139.94 269.25,135.03 C270.81,131.93 272.16,128.97 272.72,127.45 ZM 230.93 204.79 C225.44,200.12 221.48,195.91 219.99,192.98 C217.29,187.69 216.55,181.92 217.99,177.35 C219.56,172.40 223.67,165.99 225.26,166.03 C227.12,166.08 232.63,173.89 234.41,179.00 C234.70,179.85 234.96,180.66 235.16,181.42 C235.05,181.04 234.92,180.65 234.77,180.25 C233.23,175.98 225.58,167.52 224.09,168.44 C221.28,170.18 219.59,175.67 219.62,183.02 C219.64,189.42 220.06,191.24 222.44,195.30 C224.04,198.04 226.93,201.25 230.93,204.79 ZM 242.00 128.14 C242.00,123.30 243.42,122.00 248.70,122.00 C252.33,122.00 253.00,121.69 253.00,120.00 C253.00,118.59 252.34,118.01 250.75,118.02 C247.34,118.06 240.30,121.57 239.08,123.85 C237.67,126.49 237.70,130.30 239.16,131.76 C240.96,133.56 242.00,132.24 242.00,128.14 ZM 231.98 150.58 C233.16,151.45 234.19,151.92 234.88,151.78 C237.93,151.20 237.09,148.13 232.59,143.43 C228.25,138.90 224.62,130.87 224.50,125.53 C224.49,125.02 224.21,124.40 223.76,123.80 C225.02,125.37 226.13,127.61 227.08,130.49 C229.40,137.52 233.07,143.17 236.53,145.02 C238.50,146.07 239.00,147.12 239.00,150.17 C239.00,154.92 237.74,155.08 231.98,150.58 ZM 245.82 253.64 C245.96,251.15 246.00,247.32 246.00,241.50 C246.00,232.43 246.35,225.00 246.78,225.00 C247.21,225.00 248.56,225.70 249.78,226.56 C251.91,228.05 252.00,228.75 252.00,243.06 C252.00,251.69 252.25,256.43 252.78,257.67 C252.67,257.68 252.57,257.66 252.48,257.63 C251.27,257.17 251.00,254.58 251.00,243.64 C251.00,232.29 250.75,230.12 249.41,229.60 C248.54,229.27 247.41,229.25 246.91,229.56 C246.41,229.87 246.00,236.39 246.00,244.06 C246.00,248.26 245.99,251.42 245.82,253.64 ZM 234.03 286.93 C234.03,286.66 234.02,286.37 234.02,286.09 C234.00,281.00 234.52,278.78 236.54,275.34 C239.39,270.48 239.99,270.22 242.34,272.82 C243.88,274.52 243.85,274.93 241.99,278.77 C240.95,280.95 240.30,283.41 240.05,285.81 C240.27,276.88 240.06,276.04 238.46,276.65 C236.10,277.56 234.20,282.06 234.03,286.93 ZM 204.52 189.04 C204.13,188.40 202.75,187.47 201.46,186.98 C198.15,185.73 195.79,181.68 195.36,176.53 C195.32,176.11 195.29,175.72 195.27,175.36 C195.56,176.49 196.14,177.91 196.97,179.74 C198.28,182.62 200.00,184.51 202.36,185.63 C204.26,186.54 206.03,188.23 206.28,189.39 C206.54,190.55 207.07,192.29 207.48,193.25 C208.29,195.19 207.25,195.36 202.79,194.01 C202.16,193.82 201.55,193.60 200.97,193.35 C201.83,193.58 202.32,193.12 203.35,192.10 C204.39,191.05 204.92,189.68 204.52,189.04 ZM 209.19 150.40 C207.10,151.46 203.19,152.86 198.49,154.32 C198.82,154.15 199.00,154.00 199.00,153.89 C199.00,153.49 200.55,152.64 202.44,152.02 C206.82,150.57 211.00,147.30 211.00,145.31 C211.00,143.85 210.38,143.68 204.01,145.82 C204.98,145.35 205.91,144.85 206.82,144.33 C211.75,141.48 214.00,141.83 214.00,145.45 C214.00,147.45 213.02,148.47 209.19,150.40 ZM 308.44 150.37 C304.46,149.40 300.56,148.26 296.75,146.96 C289.87,144.62 287.00,144.48 287.00,146.49 C287.00,148.29 290.42,150.60 295.84,152.85 C295.25,152.63 294.63,152.40 294.00,152.15 C285.44,148.86 284.47,148.23 284.18,145.74 C283.68,141.36 286.38,141.23 294.39,145.25 C298.43,147.27 303.11,148.98 308.44,150.37 ZM 245.71 296.12 C245.88,294.21 246.00,291.06 246.00,287.50 C246.00,281.73 246.37,277.00 246.83,277.00 C247.28,277.00 248.63,278.04 249.83,279.31 C251.69,281.30 252.00,282.79 252.00,289.81 C252.00,295.61 252.22,297.53 253.09,297.92 C252.49,297.83 251.97,297.36 251.61,296.42 C251.27,295.55 250.99,292.96 250.99,290.67 C250.97,284.57 250.05,282.00 247.88,282.00 C246.20,282.00 246.00,282.83 246.00,290.00 C246.00,292.45 245.89,294.65 245.71,296.12 ZM 344.00 161.05 C345.20,160.04 346.44,158.96 347.74,157.79 C350.07,155.69 351.90,153.87 351.80,153.74 C351.70,153.61 353.06,151.52 354.81,149.10 C359.44,142.71 359.45,141.14 349.39,139.73 C351.65,139.89 353.80,139.97 355.81,139.98 L 362.13 140.00 L 359.81 144.19 C357.15,149.01 350.73,155.62 344.00,161.05 ZM 196.30 171.86 C197.21,171.24 198.85,170.90 201.67,170.38 C204.48,169.87 206.91,167.46 206.97,165.14 C206.99,164.13 206.04,163.93 203.25,164.38 C202.35,164.52 200.56,164.71 198.33,164.90 C199.97,164.64 201.07,164.35 201.42,164.07 C202.21,163.41 204.58,163.01 206.67,163.19 C214.25,163.81 210.84,168.95 201.91,170.37 C199.19,170.80 197.37,171.20 196.30,171.86 ZM 251.15 307.58 C251.49,306.86 252.52,305.69 253.79,304.53 C252.45,305.86 251.97,307.08 251.81,308.99 C251.32,314.50 246.02,314.21 245.97,308.67 C245.96,307.49 245.81,306.64 245.34,305.88 C245.74,306.36 245.97,306.78 245.97,307.08 C246.03,310.38 249.70,310.73 251.15,307.58 ZM 302.92 189.20 C306.06,185.90 308.26,181.04 310.64,172.17 C310.92,171.15 312.47,171.00 317.41,171.53 C320.09,171.81 322.60,171.79 325.07,171.37 C322.53,171.97 319.72,172.45 317.50,172.65 L 310.50 173.26 L 308.68 178.88 C306.90,184.35 304.44,188.31 301.16,190.92 C301.71,190.44 302.29,189.87 302.92,189.20 ZM 150.22 145.56 C150.11,144.97 150.15,144.51 150.39,144.28 C150.80,143.86 155.05,143.48 159.82,143.43 C165.10,143.38 169.30,143.03 174.82,142.02 C170.17,142.90 165.64,143.56 160.00,144.22 C154.98,144.82 150.71,145.40 150.22,145.56 ZM 221.00 134.35 C221.00,134.26 220.99,134.16 220.97,134.04 C221.41,135.25 221.93,136.71 222.55,138.44 C223.05,139.85 223.94,141.45 225.03,143.05 C222.71,139.71 221.00,136.25 221.00,134.35 ZM 199.73 192.78 C196.19,190.94 193.42,187.90 191.35,183.57 C193.12,186.78 195.57,190.00 197.63,191.40 C198.51,191.99 199.19,192.45 199.73,192.78 ZM 324.37 136.05 C312.63,133.64 301.64,130.29 293.52,126.54 C301.38,130.17 312.75,133.58 324.37,136.05 ZM 243.89 257.79 C242.58,257.52 240.46,255.43 237.03,251.95 C239.76,254.73 242.56,257.08 243.89,257.79 ZM 190.89 156.53 C184.54,158.27 177.80,159.87 172.50,160.81 C175.25,160.32 179.98,159.28 183.00,158.50 C185.16,157.94 188.25,157.17 190.89,156.53 ZM 239.99 289.70 C240.20,292.11 240.86,294.19 241.98,295.48 C240.56,293.93 240.06,292.65 239.99,289.70 ZM 188.34 150.75 C183.13,151.94 176.83,152.82 166.08,154.05 C175.31,153.00 182.51,151.95 188.34,150.75 ZM 223.23 123.18 C222.80,122.74 222.29,122.33 221.74,122.03 C220.25,121.19 219.25,120.82 216.84,121.46 C217.76,121.17 218.42,121.00 218.74,121.00 C220.38,121.00 221.88,121.73 223.23,123.18 ZM 215.64 128.43 C215.78,128.40 215.90,128.37 216.01,128.35 C216.15,128.32 216.28,128.29 216.40,128.27 C217.04,128.13 217.51,128.03 217.91,128.15 C218.27,128.25 218.57,128.51 218.91,129.06 C218.21,128.33 217.25,128.11 215.64,128.43 ZM 264.30 230.66 C261.13,227.25 256.38,223.26 250.52,219.13 C256.17,223.01 261.04,227.11 264.30,230.66 ZM 241.83 303.00 C238.91,301.22 236.87,298.88 235.61,295.76 C236.93,298.82 239.04,301.30 241.83,303.00 ZM 242.25 295.76 C242.27,295.78 242.29,295.80 242.31,295.83 C243.50,296.94 244.75,297.86 245.22,297.99 C245.21,298.00 245.19,298.00 245.17,298.00 C244.74,298.00 243.44,297.01 242.25,295.76 ZM 155.33 153.48 C155.32,153.47 155.30,153.46 155.29,153.45 C154.33,152.82 153.28,151.61 152.39,150.27 C153.38,151.64 154.50,152.93 155.33,153.48 ZM 329.89 153.99 C336.14,154.59 338.97,154.85 340.68,154.57 C338.97,154.85 336.14,154.59 329.89,153.99 C328.71,153.88 327.54,153.75 326.37,153.62 C327.52,153.75 328.70,153.87 329.89,153.99 ZM 227.29 146.03 C228.44,147.40 229.66,148.66 230.81,149.65 C229.65,148.67 228.44,147.41 227.29,146.03 ZM 178.02 165.77 C176.02,165.53 174.60,164.98 172.44,163.98 C174.56,164.95 176.00,165.51 178.02,165.77 ZM 186.88 139.38 C185.27,139.77 183.75,140.13 182.30,140.46 C183.72,140.14 185.25,139.78 186.88,139.38 C190.47,138.52 192.61,137.92 195.87,136.63 C192.61,137.92 190.47,138.52 186.88,139.38 ZM 328.07 160.97 L 325.92 160.58 C326.79,160.73 327.50,160.85 328.07,160.97 ZM 157.66 154.42 C159.28,154.70 161.63,154.55 166.08,154.05 C161.61,154.56 159.28,154.70 157.66,154.42 ZM 235.37 189.92 C235.02,191.16 234.51,192.44 233.82,193.86 C234.51,192.45 235.02,191.16 235.37,189.92 ZM 259.70 253.16 C259.94,252.95 260.18,252.74 260.43,252.52 C260.18,252.74 259.94,252.95 259.70,253.16 Z" fill="rgb(38,65,167)"/>
<path d="M 305.50 343.03 C303.14,348.89 302.01,350.57 300.24,350.82 C296.96,351.29 296.62,349.04 298.94,342.42 C301.84,334.17 306.17,328.09 318.26,315.30 C330.31,302.55 334.19,295.82 336.51,283.66 C337.33,279.35 338.00,272.15 337.99,267.66 C337.99,259.23 334.41,211.19 333.51,207.32 C333.23,206.12 332.02,204.82 330.82,204.44 C326.48,203.06 326.00,205.58 326.00,230.00 C326.00,248.13 325.71,253.00 324.56,254.56 C323.40,256.11 322.76,256.28 321.31,255.39 C319.68,254.40 319.47,252.36 319.23,235.14 C319.08,224.61 318.71,216.00 318.41,216.00 C318.11,216.00 317.00,216.47 315.93,217.04 C313.72,218.22 313.48,223.91 314.91,241.50 C315.36,247.00 315.51,252.06 315.26,252.75 C315.00,253.44 313.76,254.00 312.51,254.00 C309.67,254.00 309.21,252.42 308.36,239.75 C307.80,231.43 307.45,230.00 305.97,230.00 C302.09,230.00 301.60,232.36 302.96,244.52 C304.38,257.28 304.07,259.29 300.75,258.82 C298.77,258.54 298.36,257.59 297.31,251.00 C296.66,246.88 296.10,240.52 296.06,236.88 C295.99,229.19 297.88,225.90 303.53,223.85 C306.40,222.81 307.00,222.10 307.00,219.70 C307.00,216.20 312.72,210.00 315.94,210.00 C317.51,210.00 318.57,208.83 319.97,205.56 C321.02,203.12 323.04,200.37 324.46,199.44 C328.06,197.08 334.78,198.05 337.61,201.33 C339.96,204.07 340.13,205.25 342.61,235.50 C346.80,286.84 343.90,298.36 320.59,322.86 C309.92,334.06 308.15,336.43 305.50,343.03 ZM 201.27 346.69 C201.47,349.96 201.18,350.54 199.25,350.82 C197.64,351.05 196.75,350.47 196.10,348.77 C191.84,337.57 188.77,333.01 177.37,320.95 C170.84,314.04 164.29,306.17 162.82,303.44 C158.53,295.51 155.90,284.67 155.32,272.50 C154.61,257.84 158.51,206.43 160.57,203.26 C163.11,199.37 166.65,197.69 171.06,198.28 C176.15,198.96 177.70,200.28 179.16,205.12 C180.14,208.42 180.90,209.16 184.11,210.03 C188.56,211.23 192.00,215.47 192.00,219.78 C192.00,222.29 192.47,222.84 195.03,223.36 C196.69,223.69 199.23,225.14 200.67,226.58 C203.27,229.18 203.28,229.26 202.69,240.85 C201.93,255.60 201.15,258.50 197.93,258.50 C195.54,258.50 195.51,258.37 195.97,251.50 C196.23,247.65 196.45,241.36 196.47,237.52 C196.50,231.47 196.25,230.49 194.62,230.17 C191.98,229.66 191.05,231.64 190.93,238.00 C190.87,241.02 190.53,245.75 190.16,248.50 C189.57,252.99 189.25,253.50 187.00,253.50 C184.54,253.50 184.50,253.37 184.50,245.50 C184.50,241.10 184.84,233.19 185.26,227.91 L 186.02 218.33 L 183.46 217.16 C182.06,216.52 180.70,216.00 180.45,216.00 C180.20,216.00 180.00,224.49 180.00,234.88 C180.00,254.59 179.51,256.90 175.63,255.41 C175.26,255.27 174.97,255.23 174.74,255.10 C173.68,254.50 173.72,251.94 173.12,229.11 C172.58,208.64 172.29,205.58 170.81,204.65 C169.53,203.84 168.66,203.99 167.24,205.28 C165.59,206.78 165.09,210.75 163.02,238.74 C160.76,269.32 160.74,270.87 162.34,280.50 C164.84,295.48 168.50,302.13 182.40,316.94 C194.63,329.96 200.86,339.79 201.27,346.69 ZM 268.26 333.90 C265.38,349.36 263.75,353.02 260.75,350.80 C259.10,349.57 259.23,348.24 263.04,327.14 C265.32,314.48 267.91,303.14 269.00,300.99 C270.07,298.91 274.89,293.72 279.72,289.46 C284.55,285.21 292.44,277.17 297.26,271.61 C309.98,256.94 312.93,255.27 320.57,258.46 C322.95,259.46 324.54,261.05 325.54,263.44 C327.47,268.07 326.37,271.24 317.45,286.68 C305.80,306.85 304.86,307.94 302.07,304.58 C301.14,303.46 301.53,301.94 303.95,297.33 C307.20,291.16 307.77,290.15 315.25,277.41 C320.23,268.93 321.05,265.62 318.42,264.61 C313.72,262.80 312.60,263.69 298.69,280.12 C295.61,283.77 289.44,289.76 284.98,293.46 C275.32,301.45 273.51,304.16 272.05,312.88 C271.44,316.52 269.74,325.98 268.26,333.90 ZM 239.57 349.68 C238.74,351.85 235.03,351.22 234.10,348.75 C233.63,347.51 231.83,338.40 230.09,328.50 C228.35,318.60 226.26,308.66 225.44,306.40 C224.36,303.43 221.19,299.75 213.92,293.03 C208.41,287.93 200.07,279.31 195.39,273.88 C188.37,265.72 186.40,264.00 184.07,264.00 C182.52,264.00 180.67,264.69 179.98,265.53 C178.36,267.48 178.73,268.32 189.65,287.22 C194.33,295.32 198.00,302.75 197.82,303.72 C197.63,304.70 196.52,305.64 195.36,305.80 C193.75,306.03 192.62,305.05 190.76,301.80 C189.40,299.44 184.85,291.66 180.64,284.52 C172.76,271.14 171.77,267.80 174.14,262.60 C175.74,259.08 181.28,256.65 185.85,257.47 C188.73,257.98 190.87,259.63 195.99,265.31 C199.56,269.26 208.67,278.58 216.23,286.00 C227.26,296.84 230.26,300.39 231.45,304.00 C233.47,310.09 240.21,348.02 239.57,349.68 ZM 227.29 146.03 C228.43,147.39 229.64,148.63 230.77,149.62 C229.62,148.64 228.43,147.40 227.29,146.03 Z" fill="rgb(82,154,214)"/>
<path d="M 0.00 250.00 L 0.00 0.00 L 250.00 0.00 L 500.00 0.00 L 500.00 250.00 L 500.00 500.00 L 250.00 500.00 L 0.00 500.00 L 0.00 250.00 ZM 268.26 333.90 C269.74,325.98 271.44,316.52 272.05,312.88 C273.51,304.16 275.32,301.45 284.98,293.46 C289.44,289.76 295.61,283.77 298.69,280.12 C312.60,263.69 313.72,262.80 318.42,264.61 C321.05,265.62 320.23,268.93 315.25,277.41 C307.77,290.15 307.20,291.16 303.95,297.33 C301.53,301.94 301.14,303.46 302.07,304.58 C304.86,307.94 305.80,306.85 317.45,286.68 C326.37,271.24 327.47,268.07 325.54,263.44 C324.54,261.05 322.95,259.46 320.57,258.46 C312.93,255.27 309.98,256.94 297.26,271.61 C292.44,277.17 284.55,285.21 279.72,289.46 C274.89,293.72 270.07,298.91 269.00,300.99 C267.91,303.14 265.32,314.48 263.04,327.14 C259.23,348.24 259.10,349.57 260.75,350.80 C263.75,353.02 265.38,349.36 268.26,333.90 ZM 201.27 346.69 C200.86,339.79 194.63,329.96 182.40,316.94 C168.50,302.13 164.84,295.48 162.34,280.50 C160.74,270.87 160.76,269.32 163.02,238.74 C165.09,210.75 165.59,206.78 167.24,205.28 C168.66,203.99 169.53,203.84 170.81,204.65 C172.29,205.58 172.58,208.64 173.12,229.11 C173.85,257.00 173.63,254.64 175.63,255.41 C179.51,256.90 180.00,254.59 180.00,234.88 C180.00,224.49 180.20,216.00 180.45,216.00 C180.70,216.00 182.06,216.52 183.46,217.16 L 186.02 218.33 L 185.26 227.91 C184.84,233.19 184.50,241.10 184.50,245.50 C184.50,253.37 184.54,253.50 187.00,253.50 C189.25,253.50 189.57,252.99 190.16,248.50 C190.53,245.75 190.87,241.02 190.93,238.00 C191.05,231.64 191.98,229.66 194.62,230.17 C196.25,230.49 196.50,231.47 196.47,237.52 C196.45,241.36 196.23,247.65 195.97,251.50 C195.51,258.37 195.54,258.50 197.93,258.50 C201.15,258.50 201.93,255.60 202.69,240.85 C203.28,229.26 203.27,229.18 200.67,226.58 C199.23,225.14 196.69,223.69 195.03,223.36 C192.47,222.84 192.00,222.29 192.00,219.78 C192.00,215.47 188.56,211.23 184.11,210.03 C180.90,209.16 180.14,208.42 179.16,205.12 C177.70,200.28 176.15,198.96 171.06,198.28 C166.65,197.69 163.11,199.37 160.57,203.26 C158.51,206.43 154.61,257.84 155.32,272.50 C155.90,284.67 158.53,295.51 162.82,303.44 C164.29,306.17 170.84,314.04 177.37,320.95 C188.77,333.01 191.84,337.57 196.10,348.77 C196.75,350.47 197.64,351.05 199.25,350.82 C201.18,350.54 201.47,349.96 201.27,346.69 ZM 239.57 349.68 C240.21,348.02 233.47,310.09 231.45,304.00 C230.26,300.39 227.26,296.84 216.23,286.00 C208.67,278.58 199.56,269.26 195.99,265.31 C190.87,259.63 188.73,257.98 185.85,257.47 C181.28,256.65 175.74,259.08 174.14,262.60 C171.77,267.80 172.76,271.14 180.64,284.52 C184.85,291.66 189.40,299.44 190.76,301.80 C192.62,305.05 193.75,306.03 195.36,305.80 C196.52,305.64 197.63,304.70 197.82,303.72 C198.00,302.75 194.33,295.32 189.65,287.22 C178.73,268.32 178.36,267.48 179.98,265.53 C180.67,264.69 182.52,264.00 184.07,264.00 C186.40,264.00 188.37,265.72 195.39,273.88 C200.07,279.31 208.41,287.93 213.92,293.03 C221.19,299.75 224.36,303.43 225.44,306.40 C226.26,308.66 228.35,318.60 230.09,328.50 C231.83,338.40 233.63,347.51 234.10,348.75 C235.03,351.22 238.74,351.85 239.57,349.68 ZM 305.50 343.03 C308.15,336.43 309.92,334.06 320.59,322.86 C343.90,298.36 346.80,286.84 342.61,235.50 C340.13,205.25 339.96,204.07 337.61,201.33 C334.78,198.05 328.06,197.08 324.46,199.44 C323.04,200.37 321.02,203.12 319.97,205.56 C318.57,208.83 317.51,210.00 315.94,210.00 C312.72,210.00 307.00,216.20 307.00,219.70 C307.00,222.10 306.40,222.81 303.53,223.85 C297.88,225.90 295.99,229.19 296.06,236.88 C296.10,240.52 296.66,246.88 297.31,251.00 C298.36,257.59 298.77,258.54 300.75,258.82 C304.07,259.29 304.38,257.28 302.96,244.52 C301.60,232.36 302.09,230.00 305.97,230.00 C307.45,230.00 307.80,231.43 308.36,239.75 C309.21,252.42 309.67,254.00 312.51,254.00 C313.76,254.00 315.00,253.44 315.26,252.75 C315.51,252.06 315.36,247.00 314.91,241.50 C313.48,223.91 313.72,218.22 315.93,217.04 C317.00,216.47 318.11,216.00 318.41,216.00 C318.71,216.00 319.08,224.61 319.23,235.14 C319.47,252.36 319.68,254.40 321.31,255.39 C322.76,256.28 323.40,256.11 324.56,254.56 C325.71,253.00 326.00,248.13 326.00,230.00 C326.00,205.58 326.48,203.06 330.82,204.44 C332.02,204.82 333.23,206.12 333.51,207.32 C334.41,211.19 337.99,259.23 337.99,267.66 C338.00,272.15 337.33,279.35 336.51,283.66 C334.19,295.82 330.31,302.55 318.26,315.30 C306.17,328.09 301.84,334.17 298.94,342.42 C296.62,349.04 296.96,351.29 300.24,350.82 C302.01,350.57 303.14,348.89 305.50,343.03 ZM 251.81 308.99 C252.05,306.22 252.95,304.90 256.15,302.62 C262.29,298.24 263.99,294.73 264.00,286.48 C264.00,279.15 262.92,276.65 256.25,268.58 L 253.84 265.65 L 263.45 256.58 C272.01,248.50 273.15,247.01 273.86,243.00 C274.29,240.52 274.32,237.30 273.93,235.82 C273.13,232.84 267.58,225.31 264.50,223.02 C263.40,222.21 260.82,220.03 258.77,218.17 C254.57,214.38 254.33,214.91 263.19,208.17 C269.94,203.05 274.70,197.45 278.47,190.24 C280.75,185.87 281.11,184.22 280.57,180.59 C279.84,175.73 274.60,167.00 272.42,167.00 C271.65,167.00 269.36,169.50 267.34,172.54 C262.79,179.39 261.81,186.59 264.47,193.56 C265.89,197.27 265.96,198.34 264.90,199.62 C262.66,202.32 251.32,210.00 249.58,210.00 C246.93,210.00 240.86,206.54 236.07,202.29 L 231.65 198.36 L 233.82 193.86 C236.39,188.55 236.53,185.11 234.41,179.00 C232.63,173.89 227.12,166.08 225.26,166.03 C223.67,165.99 219.56,172.40 217.99,177.35 C216.55,181.92 217.29,187.69 219.99,192.98 C222.70,198.29 233.50,207.80 246.81,216.60 C259.11,224.73 267.56,232.73 268.54,237.17 C269.62,242.08 267.30,246.49 260.54,252.42 C257.05,255.49 253.70,258.00 253.10,258.00 C252.35,258.00 252.00,253.23 252.00,243.06 C252.00,228.75 251.91,228.05 249.78,226.56 C248.56,225.70 247.21,225.00 246.78,225.00 C246.35,225.00 246.00,232.43 246.00,241.50 C246.00,255.53 245.77,258.00 244.49,258.00 C243.66,258.00 240.31,255.28 237.03,251.95 C227.56,242.33 227.58,236.90 237.09,227.79 L 243.05 222.08 L 240.59 220.47 C237.35,218.34 235.39,219.43 229.57,226.58 C218.89,239.69 221.35,247.32 241.51,263.54 C253.26,272.98 258.23,279.61 258.74,286.50 C259.15,291.96 256.40,298.00 253.51,298.00 C252.29,298.00 252.00,296.46 252.00,289.81 C252.00,282.79 251.69,281.30 249.83,279.31 C248.63,278.04 247.28,277.00 246.83,277.00 C246.37,277.00 246.00,281.73 246.00,287.50 C246.00,293.27 245.69,298.00 245.31,298.00 C244.94,298.00 243.59,297.02 242.31,295.83 C239.26,292.96 239.11,284.75 241.99,278.77 C243.85,274.93 243.88,274.52 242.34,272.82 C239.99,270.22 239.39,270.48 236.54,275.34 C234.52,278.78 234.00,281.00 234.02,286.09 C234.05,294.53 236.45,299.73 241.83,303.00 C245.24,305.07 245.95,306.04 245.97,308.67 C246.02,314.21 251.32,314.50 251.81,308.99 ZM 251.76 171.20 L 252.03 139.89 L 256.01 136.10 C259.53,132.76 260.00,131.77 260.00,127.73 C260.00,119.44 253.26,114.44 245.52,116.99 C240.56,118.63 238.00,122.30 238.00,127.79 C238.00,131.76 238.48,132.77 242.00,136.11 L 246.00 139.92 L 246.00 170.79 C246.00,187.77 246.32,201.99 246.71,202.38 C247.10,202.77 248.34,202.95 249.46,202.79 C251.46,202.51 251.51,201.85 251.76,171.20 ZM 207.48 193.25 C207.07,192.29 206.54,190.55 206.28,189.39 C206.03,188.23 204.26,186.54 202.36,185.63 C200.00,184.51 198.28,182.62 196.97,179.74 C193.72,172.58 194.24,171.59 201.91,170.37 C210.84,168.95 214.25,163.81 206.67,163.19 C204.58,163.01 202.21,163.41 201.42,164.07 C200.58,164.76 195.25,165.47 188.68,165.76 C178.42,166.22 176.93,166.05 172.44,163.98 L 167.50 161.69 L 172.50 160.81 C184.39,158.70 203.51,153.28 209.19,150.40 C213.02,148.47 214.00,147.45 214.00,145.45 C214.00,141.83 211.75,141.48 206.82,144.33 C198.67,149.04 188.26,151.52 166.08,154.05 C159.09,154.84 157.27,154.75 155.35,153.49 C153.28,152.13 149.37,146.16 150.18,145.58 C150.35,145.45 154.77,144.84 160.00,144.22 C170.18,143.02 176.73,141.84 186.88,139.38 C193.30,137.83 195.11,137.15 206.92,131.79 C216.43,127.48 218.35,127.28 219.80,130.46 C220.46,131.91 221.00,133.66 221.00,134.35 C221.00,137.77 226.55,146.27 231.21,149.98 C237.63,155.09 239.00,155.12 239.00,150.17 C239.00,147.12 238.50,146.07 236.53,145.02 C233.07,143.17 229.40,137.52 227.08,130.49 C225.01,124.23 222.18,121.00 218.74,121.00 C217.63,121.00 212.39,122.98 207.11,125.40 C190.15,133.16 172.69,137.39 150.50,139.10 C142.80,139.69 136.39,140.29 136.25,140.43 C136.11,140.56 137.86,143.46 140.15,146.87 C150.75,162.65 167.72,172.95 183.21,172.99 C187.90,173.00 187.93,173.02 189.07,177.24 C191.56,186.52 196.03,191.97 202.79,194.01 C207.25,195.36 208.29,195.19 207.48,193.25 ZM 297.62 193.09 C302.74,190.76 306.31,186.17 308.68,178.88 L 310.50 173.26 L 317.50 172.65 C321.35,172.31 326.93,171.11 329.89,169.97 C339.10,166.44 355.18,152.59 359.81,144.19 L 362.13 140.00 L 355.81 139.98 C337.93,139.93 308.97,133.68 293.52,126.54 C289.43,124.65 284.26,122.56 282.03,121.89 C278.28,120.77 277.79,120.85 275.49,123.01 C274.12,124.30 273.00,125.85 273.00,126.47 C273.00,127.09 271.31,130.94 269.25,135.03 C266.77,139.94 264.40,143.15 262.28,144.48 C259.52,146.22 259.07,147.08 259.04,150.72 C258.99,155.67 259.78,155.64 267.06,150.39 C272.07,146.78 276.17,140.20 278.04,132.75 C279.50,126.94 280.24,126.86 290.11,131.39 C299.52,135.71 314.56,140.68 320.73,141.52 C323.35,141.87 326.88,142.58 328.57,143.10 C331.11,143.88 338.59,144.61 347.28,144.93 C348.89,144.99 348.92,145.25 347.62,147.75 C346.83,149.26 345.09,151.53 343.74,152.79 C341.32,155.05 341.11,155.07 329.89,153.99 C314.98,152.55 303.17,149.65 294.39,145.25 C286.38,141.23 283.68,141.36 284.18,145.74 C284.47,148.23 285.44,148.86 294.00,152.15 C304.61,156.23 309.45,157.56 322.39,159.93 L 331.29 161.57 L 327.39 163.21 C321.76,165.59 313.28,166.17 304.32,164.80 C300.02,164.14 294.48,163.58 292.00,163.55 C288.18,163.51 287.50,163.80 287.50,165.46 C287.50,167.49 290.28,168.86 298.75,171.00 C303.74,172.26 304.03,173.56 300.75,179.99 C299.37,182.69 297.27,184.99 295.31,185.95 C293.56,186.80 291.87,188.47 291.57,189.66 C291.26,190.84 290.73,192.53 290.40,193.41 C289.56,195.58 292.40,195.45 297.62,193.09 ZM 225.16 189.45 C223.21,185.18 223.84,176.00 226.08,176.00 C229.06,176.00 231.32,188.28 228.80,190.80 C227.07,192.53 226.46,192.31 225.16,189.45 ZM 269.67 191.33 C269.30,190.97 269.00,188.32 269.00,185.44 C269.00,181.78 269.57,179.52 270.92,177.86 L 272.84 175.50 L 273.92 178.32 C275.46,182.33 275.26,185.76 273.28,189.10 C271.53,192.07 270.83,192.50 269.67,191.33 ZM 244.57 131.43 C241.24,128.10 244.10,122.00 249.00,122.00 C253.67,122.00 256.94,128.66 253.80,131.80 C252.09,133.51 246.43,133.28 244.57,131.43 Z" fill="rgb(254,254,254)"/>
</g>
</svg>